# xmcd
#
# Track frame offsets: 
#        150
#        13862
#        28442
#        40907
#        55602
#        67277
#        80450
#        94997
#        108540
#        122152
#        134605
#        146825
#        159607
#        173497
#        188965
#        201377
#        214575
#        228595
#        241622
#        256900
#        270370
#        284657
#        299525
#
# Disc length: 4184 seconds
#
# Revision: 3
# Processed by: cddbd v1.5.2PL0 Copyright (c) Steve Scherf et al.
# Submitted via: ExactAudioCopy v0.95b4
#
DISCID=68105617
DTITLE=Various Artist - The Cornshuker's Frolic Volume 1
DYEAR=1999
DGENRE=Country
TTITLE0=Crockett's Kentucky Mountaineers - Little Rabbit and Rabbit Wher
TTITLE0=e's Your Mammy
TTITLE1=Freeny's Barn Dance Band - Mississippi Square Dance - Part 2
TTITLE2=Andrew and Jim Baxter - Forty Drops
TTITLE3=Stoneman's Blue Ridge Cornshuckers - Serenade In The Mountains
TTITLE3=Part 2
TTITLE4=Bascom Lamar Lunsford - Kidder Cole
TTITLE5=Henry Thomas - Old Country Stomp
TTITLE6=Fiddlin' Powers and Family - Old Virginia Reel - Part 1
TTITLE7=Fiddlin' Powers and Family - Old Virginia Reel - Part 2
TTITLE8=Hambone Willie Newbern - Way Down In Arkansas
TTITLE9=Lewis Brothers - Bull At The Wagon
TTITLE10=Red Headed Fiddlers - Fire In The Mountain
TTITLE11=James Cole's String Band - Bill Cheatem
TTITLE12=Charlie Parker - Rabbit Chase
TTITLE13=Judge Sturdy's Orchestra - Moselle
TTITLE14=Evans and McClain - Old Hen Cackle
TTITLE15=Reeves White County Ramblers - Flying Engine
TTITLE16=Binkley Brothers Dixie Clodhoppers - I'll Rise When The Roost
TTITLE16=er Crows
TTITLE17=Taylor's Kentucky Boys - Soldier's Joy
TTITLE18=Seven Foot Dilly and His Dill Pickles - Sand Mountain Drag
TTITLE19=Winston Holmes and Charlie Turner - Kansas City Call
TTITLE20=Pigmeat Pete and Catjuice Charlie - On Our Turpentine Farm
TTITLE21=Coon's Joy Boys - Husking Bee
TTITLE22=Calloway's West Virginia Mountaineers - The Cornshuckers Frol
TTITLE22=ic
EXTD=
EXTT0=
EXTT1=
EXTT2=
EXTT3=
EXTT4=
EXTT5=
EXTT6=
EXTT7=
EXTT8=
EXTT9=
EXTT10=
EXTT11=
EXTT12=
EXTT13=
EXTT14=
EXTT15=
EXTT16=
EXTT17=
EXTT18=
EXTT19=
EXTT20=
EXTT21=
EXTT22=
PLAYORDER=
